<mxfile host="app.diagrams.net" modified="2022-02-16T16:21:19.351Z" agent="5.0 (Windows NT 10.0; Win64; x64) AppleWebKit/537.36 (KHTML, like Gecko) Chrome/98.0.4758.82 Safari/537.36" etag="j2MXUaQF4wsde3xtshkW" version="16.5.6" type="github">
  <diagram id="ly3Hp3gauICcpbgOwVCB" name="Page-1">
    <mxGraphModel dx="1093" dy="515" grid="1" gridSize="10" guides="1" tooltips="1" connect="1" arrows="1" fold="1" page="1" pageScale="1" pageWidth="1169" pageHeight="827" math="0" shadow="0">
      <root>
        <mxCell id="0" />
        <mxCell id="1" parent="0" />
        <mxCell id="jFZoMRIlUTQxQSA5hfnc-32" value="Poker Room&lt;br&gt;Settings" style="edgeStyle=none;rounded=0;orthogonalLoop=1;jettySize=auto;html=1;entryX=0;entryY=0.5;entryDx=0;entryDy=0;" edge="1" parent="1" source="jFZoMRIlUTQxQSA5hfnc-4" target="jFZoMRIlUTQxQSA5hfnc-29">
          <mxGeometry relative="1" as="geometry" />
        </mxCell>
        <mxCell id="jFZoMRIlUTQxQSA5hfnc-33" style="edgeStyle=none;rounded=0;orthogonalLoop=1;jettySize=auto;html=1;entryX=0;entryY=0.5;entryDx=0;entryDy=0;exitX=1;exitY=0.75;exitDx=0;exitDy=0;" edge="1" parent="1" source="jFZoMRIlUTQxQSA5hfnc-4" target="jFZoMRIlUTQxQSA5hfnc-30">
          <mxGeometry relative="1" as="geometry">
            <Array as="points">
              <mxPoint x="260" y="443" />
            </Array>
          </mxGeometry>
        </mxCell>
        <mxCell id="jFZoMRIlUTQxQSA5hfnc-34" value="Poker Room ID,&lt;br&gt;Password" style="edgeLabel;html=1;align=center;verticalAlign=middle;resizable=0;points=[];" vertex="1" connectable="0" parent="jFZoMRIlUTQxQSA5hfnc-33">
          <mxGeometry x="0.1726" y="-2" relative="1" as="geometry">
            <mxPoint x="18" y="-25" as="offset" />
          </mxGeometry>
        </mxCell>
        <mxCell id="jFZoMRIlUTQxQSA5hfnc-36" style="edgeStyle=none;rounded=0;orthogonalLoop=1;jettySize=auto;html=1;entryX=0;entryY=0.5;entryDx=0;entryDy=0;" edge="1" parent="1" source="jFZoMRIlUTQxQSA5hfnc-4" target="jFZoMRIlUTQxQSA5hfnc-35">
          <mxGeometry relative="1" as="geometry">
            <Array as="points">
              <mxPoint x="270" y="555" />
            </Array>
          </mxGeometry>
        </mxCell>
        <mxCell id="jFZoMRIlUTQxQSA5hfnc-37" value="Poker Room&lt;br&gt;information" style="edgeLabel;html=1;align=center;verticalAlign=middle;resizable=0;points=[];" vertex="1" connectable="0" parent="jFZoMRIlUTQxQSA5hfnc-36">
          <mxGeometry x="0.5474" y="2" relative="1" as="geometry">
            <mxPoint x="11" y="-23" as="offset" />
          </mxGeometry>
        </mxCell>
        <mxCell id="jFZoMRIlUTQxQSA5hfnc-4" value="Registered User" style="whiteSpace=wrap;html=1;" vertex="1" parent="1">
          <mxGeometry x="90" y="380" width="120" height="60" as="geometry" />
        </mxCell>
        <mxCell id="jFZoMRIlUTQxQSA5hfnc-44" style="edgeStyle=none;rounded=0;orthogonalLoop=1;jettySize=auto;html=1;entryX=0.5;entryY=0;entryDx=0;entryDy=0;" edge="1" parent="1" source="jFZoMRIlUTQxQSA5hfnc-29" target="jFZoMRIlUTQxQSA5hfnc-38">
          <mxGeometry relative="1" as="geometry">
            <Array as="points">
              <mxPoint x="650" y="335" />
            </Array>
          </mxGeometry>
        </mxCell>
        <mxCell id="jFZoMRIlUTQxQSA5hfnc-45" value="Poker Room" style="edgeLabel;html=1;align=center;verticalAlign=middle;resizable=0;points=[];" vertex="1" connectable="0" parent="jFZoMRIlUTQxQSA5hfnc-44">
          <mxGeometry x="-0.0972" y="1" relative="1" as="geometry">
            <mxPoint x="-27" y="1" as="offset" />
          </mxGeometry>
        </mxCell>
        <mxCell id="jFZoMRIlUTQxQSA5hfnc-29" value="Create Poker&lt;br&gt;Room" style="shape=ellipse;html=1;dashed=0;whitespace=wrap;aspect=fixed;perimeter=ellipsePerimeter;" vertex="1" parent="1">
          <mxGeometry x="380" y="290" width="90" height="90" as="geometry" />
        </mxCell>
        <mxCell id="jFZoMRIlUTQxQSA5hfnc-47" value="User&#39;s status" style="edgeStyle=none;rounded=0;orthogonalLoop=1;jettySize=auto;html=1;entryX=0.5;entryY=0;entryDx=0;entryDy=0;exitX=0.988;exitY=0.684;exitDx=0;exitDy=0;exitPerimeter=0;" edge="1" parent="1" source="jFZoMRIlUTQxQSA5hfnc-30" target="jFZoMRIlUTQxQSA5hfnc-46">
          <mxGeometry x="-0.6456" relative="1" as="geometry">
            <Array as="points">
              <mxPoint x="610" y="459" />
            </Array>
            <mxPoint as="offset" />
          </mxGeometry>
        </mxCell>
        <mxCell id="jFZoMRIlUTQxQSA5hfnc-48" style="edgeStyle=none;rounded=0;orthogonalLoop=1;jettySize=auto;html=1;entryX=0.25;entryY=1;entryDx=0;entryDy=0;" edge="1" parent="1" source="jFZoMRIlUTQxQSA5hfnc-30" target="jFZoMRIlUTQxQSA5hfnc-38">
          <mxGeometry relative="1" as="geometry">
            <Array as="points">
              <mxPoint x="620" y="440" />
            </Array>
          </mxGeometry>
        </mxCell>
        <mxCell id="jFZoMRIlUTQxQSA5hfnc-49" value="User Id" style="edgeLabel;html=1;align=center;verticalAlign=middle;resizable=0;points=[];" vertex="1" connectable="0" parent="jFZoMRIlUTQxQSA5hfnc-48">
          <mxGeometry x="-0.1653" y="2" relative="1" as="geometry">
            <mxPoint x="-39" y="1" as="offset" />
          </mxGeometry>
        </mxCell>
        <mxCell id="jFZoMRIlUTQxQSA5hfnc-30" value="Join Poker&amp;nbsp;&lt;br&gt;Room" style="shape=ellipse;html=1;dashed=0;whitespace=wrap;aspect=fixed;perimeter=ellipsePerimeter;" vertex="1" parent="1">
          <mxGeometry x="380" y="397.5" width="90" height="90" as="geometry" />
        </mxCell>
        <mxCell id="jFZoMRIlUTQxQSA5hfnc-42" style="edgeStyle=none;rounded=0;orthogonalLoop=1;jettySize=auto;html=1;entryX=0;entryY=0.5;entryDx=0;entryDy=0;exitX=0.916;exitY=0.797;exitDx=0;exitDy=0;exitPerimeter=0;" edge="1" parent="1" source="jFZoMRIlUTQxQSA5hfnc-35" target="jFZoMRIlUTQxQSA5hfnc-41">
          <mxGeometry relative="1" as="geometry" />
        </mxCell>
        <mxCell id="jFZoMRIlUTQxQSA5hfnc-43" value="List of matched poker rooms" style="edgeLabel;html=1;align=center;verticalAlign=middle;resizable=0;points=[];" vertex="1" connectable="0" parent="jFZoMRIlUTQxQSA5hfnc-42">
          <mxGeometry x="-0.5897" y="2" relative="1" as="geometry">
            <mxPoint x="65" as="offset" />
          </mxGeometry>
        </mxCell>
        <mxCell id="jFZoMRIlUTQxQSA5hfnc-35" value="Search Poker&lt;br&gt;Room" style="shape=ellipse;html=1;dashed=0;whitespace=wrap;aspect=fixed;perimeter=ellipsePerimeter;" vertex="1" parent="1">
          <mxGeometry x="380" y="510" width="90" height="90" as="geometry" />
        </mxCell>
        <mxCell id="jFZoMRIlUTQxQSA5hfnc-40" value="List of poker rooms" style="edgeStyle=none;rounded=0;orthogonalLoop=1;jettySize=auto;html=1;entryX=1.008;entryY=0.349;entryDx=0;entryDy=0;exitX=0.364;exitY=0.996;exitDx=0;exitDy=0;exitPerimeter=0;entryPerimeter=0;" edge="1" parent="1" source="jFZoMRIlUTQxQSA5hfnc-38" target="jFZoMRIlUTQxQSA5hfnc-35">
          <mxGeometry x="0.1772" relative="1" as="geometry">
            <Array as="points">
              <mxPoint x="690" y="541" />
            </Array>
            <mxPoint as="offset" />
          </mxGeometry>
        </mxCell>
        <mxCell id="jFZoMRIlUTQxQSA5hfnc-38" value="Poker Room Database" style="html=1;dashed=0;whitespace=wrap;shape=partialRectangle;right=0;left=0;" vertex="1" parent="1">
          <mxGeometry x="690" y="380" width="150" height="30" as="geometry" />
        </mxCell>
        <mxCell id="jFZoMRIlUTQxQSA5hfnc-41" value="Game Lobby&amp;nbsp;&lt;br&gt;" style="shape=document;whiteSpace=wrap;html=1;boundedLbl=1;dashed=0;flipH=1;" vertex="1" parent="1">
          <mxGeometry x="720" y="550" width="100" height="70" as="geometry" />
        </mxCell>
        <mxCell id="jFZoMRIlUTQxQSA5hfnc-46" value="User Database" style="html=1;dashed=0;whitespace=wrap;shape=partialRectangle;right=0;left=0;" vertex="1" parent="1">
          <mxGeometry x="740" y="500" width="150" height="30" as="geometry" />
        </mxCell>
      </root>
    </mxGraphModel>
  </diagram>
</mxfile>
